<?xml version="1.0" encoding="utf-8"?>
<!-- Generator: Adobe Illustrator 28.0.0, SVG Export Plug-In . SVG Version: 6.00 Build 0)  -->
<svg version="1.1" id="Layer_1" xmlns="http://www.w3.org/2000/svg" xmlns:xlink="http://www.w3.org/1999/xlink" x="0px" y="0px"
	 viewBox="0 0 50 50" style="enable-background:new 0 0 50 50;" xml:space="preserve">
<style type="text/css">
	.st0{fill:#FFFFFF;}
</style>
<g>
	<path class="st0" d="M30.39,9.37l-0.03,0.07c0,0.03-0.02,0.07-0.04,0.13l-0.03,0.1c-0.02,0.05-0.04,0.1-0.06,0.16l-0.2,0.59
		c-0.09,0.27-0.21,0.6-0.34,0.98l-0.03,0.1c-0.04,0.11-0.08,0.22-0.12,0.34l-0.13,0.38c-0.1,0.31-0.22,0.65-0.34,1
		c-0.06,0.17-0.12,0.34-0.18,0.52l-0.22,0.63H17.12c-1.55,0-2.81,1.26-2.81,2.81c0,1.55,1.26,2.82,2.81,2.82h9.61L25,25h-7.88
		c-4.31,0-7.81-3.51-7.81-7.82c0-4.31,3.5-7.81,7.81-7.81H30.39z"/>
	<path class="st0" d="M19.61,40.63l0.03-0.07c0-0.03,0.02-0.07,0.04-0.13l0.03-0.1c0.02-0.05,0.04-0.1,0.06-0.16l0.2-0.59
		c0.09-0.27,0.21-0.6,0.34-0.98l0.03-0.1c0.04-0.11,0.08-0.22,0.12-0.34l0.13-0.38c0.1-0.31,0.22-0.65,0.34-1
		c0.06-0.17,0.12-0.34,0.18-0.52l0.22-0.63h11.55c1.55,0,2.81-1.26,2.81-2.81c0-1.55-1.26-2.82-2.81-2.82l-9.61,0L25,25h7.88
		c4.31,0,7.81,3.51,7.81,7.82c0,4.31-3.5,7.81-7.81,7.81H19.61z"/>
	<path class="st0" d="M35.26,20.01L26.73,20l1.94-5.63h11.31l-1.88,3.87C37.58,19.33,36.47,20.02,35.26,20.01z"/>
	<path class="st0" d="M14.74,29.98L23.27,30l-1.94,5.63H10.02l1.88-3.87C12.42,30.67,13.53,29.98,14.74,29.98z"/>
</g>
</svg>
